<svg id="vector" xmlns="http://www.w3.org/2000/svg" width="450" height="450" viewBox="0 0 64 64"><defs><radialGradient gradientUnits="userSpaceOnUse" cx="23.131" cy="18.441" r="42.132" id="gradient_0"><stop stop-color="#5383EC" offset="0"/><stop stop-color="#7F52FF" offset="0.867"/></radialGradient><linearGradient gradientUnits="userSpaceOnUse" x1="44.172" y1="4.377" x2="17.973" y2="34.035" id="gradient_1"><stop stop-color="#33C3FF" offset="0"/><stop stop-color="#5383EC" offset="0.878"/></linearGradient></defs><path fill="#6075f2" d="M56.25,18V46L32,60 7.75,46V18L32,4Z" id="path_0"/><path fill="#6b57ff" d="m41.5,26.5v11L32,43V60L56.25,46V18Z" id="path_1"/><path fill="url(#gradient_0)" d="m32,43 l-9.5,-5.5v-11L7.75,18V46L32,60Z" id="path_2"/><path fill="url(#gradient_1)" d="M22.5,26.5 L32,21 41.5,26.5 56.25,18 32,4 7.75,18Z" id="path_3"/><path fill="#000000" d="m32,21 l9.526,5.5v11L32,43 22.474,37.5v-11z" id="path_4"/></svg>